<svg version="1.2" xmlns="http://www.w3.org/2000/svg" viewBox="0 0 2105 840" width="2105" height="840">
	<defs>
		<linearGradient id="g1" x2="1" gradientUnits="userSpaceOnUse" gradientTransform="matrix(774.627,0,0,744.804,71.65,51.445)">
			<stop offset="0" stop-color="#fbb040"/>
			<stop offset="1" stop-color="#f9ed32"/>
		</linearGradient>
	</defs>
	<style>
		.s0 { fill: url(#g1) } 
		.s1 { fill: #ffffff } 
	</style>
	<path id="Layer copy" class="s0" d="m846.28 427.62c0-0.16-0.09-0.3-0.1-0.46 0.01-1.11 0.09-2.2 0.09-3.32 0-205.35-173.74-372.4-387.3-372.4-213.56 0-387.31 167.05-387.31 372.4 0 0.85 0.06 1.69 0.06 2.55 0 0.84-0.07 1.67-0.07 2.51 0 0.26 0.13 0.5 0.16 0.75 3.27 202.66 175.63 366.6 387.16 366.6 200.53 0 365.94-147.31 385.37-335.31q1.93-16.47 1.94-33.32zm-387.31-359.07c203.75 0 369.51 159.38 369.51 355.29q-0.02 17.87-1.84 35.28c-17.86 153.81-164.51 278.32-336.13 278.32-176.88 0-253.88-85.42-285.73-176.71 52.04 83.9 151.18 142.02 262.07 142.02 157.06 0 284.83-122.84 284.83-273.86q-0.01-0.04-0.02-0.1-0.01-0.49-0.02-0.98c0-0.07 0.04-0.13 0.04-0.19 0-1.16-0.08-2.31-0.1-3.46-1.7-156.67-87.48-322.2-324.16-322.2-106.52 0-203.83 45.73-269.69 116.48 67.03-90.61 177.04-149.89 301.24-149.89zm274.89 360.35q0.01 0.04 0.02 0.08c-0.05 141.54-119.81 256.67-267.03 256.67-150.37 0-280.63-119.54-281.12-256.01 0-0.66 1.64-1.36 1.64-2.02q0-0.01 0-0.04c0-141.56 118.15-256.7 265.36-256.7 150.08 0 280.93 119.08 281.93 255.21 0.01 0.93-0.8 1.97-0.8 2.81zm-644.33-2.33c1.43-166.92 155.56-307.49 337.9-307.49 163.7 0 240.16 81.31 275.75 161.79-54.13-75.8-147.49-127.11-251.68-127.11-157.06 0-284.41 122.85-284.41 273.87q0 0.03 0 0.05 0 0.59 0 1.18 0 0.01 0 0.04c0 0.17-0.39 0.34-0.39 0.52 0.4 122.3 43.25 325.13 324.02 325.13 86.59 0 166.99-30.24 229.47-79.56-66.9 64.32-159.31 104.14-261.17 104.14-202.79 0.01-367.96-157.92-369.49-352.56z"/>
	<path class="s1" d="m1105.65 573.33h-8.07v-115.9h8.07zm12.22 0h-8.07v-115.9h8.07zm12.23 0h-8.07v-115.9h8.07zm12.18 0h-8.06v-115.9h8.06zm-81.38-249.06c28.44 0 55.94 10.26 77.5 29.01l-5.28 6.08c-20.06-17.38-45.67-26.96-72.19-26.96-60.91 0-110.5 49.55-110.5 110.51 0 60.91 49.58 110.5 110.5 110.5h24.49v-3.81h-24.49c-58.85 0-106.72-47.87-106.72-106.73 0-58.85 47.87-106.72 106.72-106.72 25.28 0 49.8 9.03 69.02 25.44l-5.25 6.15c-17.79-15.18-40.42-23.52-63.8-23.52-54.39 0-98.65 44.26-98.65 98.65 0 54.4 44.26 98.66 98.65 98.66h24.48v-3.81h-24.48c-52.3 0-94.85-42.55-94.85-94.85 0-52.3 42.55-94.85 94.85-94.85 22.11 0 43.65 7.76 60.61 21.91l-5.19 6.18c-15.49-12.94-35.2-20.05-55.42-20.05-47.84 0-86.78 38.94-86.78 86.77 0 47.84 38.91 86.78 86.78 86.78h24.48v-3.81h-24.48c-45.77 0-83-37.26-83-83 0-45.73 37.23-82.96 83-82.96 18.92 0 37.46 6.56 52.12 18.48l-5.08 6.25c-13.42-10.89-29.7-16.66-47.04-16.66-41.31 0-74.93 33.62-74.93 74.93 0 41.31 33.62 74.93 74.93 74.93h24.48v-60.33h8.07v115.86h-32.55c-71.94 0-130.46-58.52-130.46-130.46 0-71.94 58.52-130.45 130.46-130.45 31.63 0 62.12 11.5 85.92 32.38l-5.32 6.08c-22.32-19.61-50.93-30.39-80.6-30.39-67.47 0-122.38 54.9-122.38 122.38 0 67.48 54.9 122.38 122.38 122.38h24.49v-3.77h-24.49c-65.38 0-118.57-53.23-118.57-118.61 0-65.38 53.19-118.57 118.57-118.57zm122.58 249.03h-8.07v-260.88h8.07zm12.43 0h-8.07v-260.87h8.07zm12.43 0h-8.07v-260.88h8.07zm12.46 0h-8.07v-260.87h8.07zm114.67-49.86h-102.23v4.39h102.23v8.04h-102.23v4.39h102.23v8.07h-102.23v4.37h102.23v8.06h-102.23v4.4h102.23v8.07h-102.23v0.07h-8.07v-260.88h8.07v202.95h102.23c0 0 0 8.07 0 8.07zm148.61-217.29c75.51 0 136.94 61.39 136.94 136.94 0 75.51-61.43 136.94-136.94 136.94-75.51 0-136.94-61.43-136.94-136.94 0-75.51 61.43-136.94 136.94-136.94zm0 265.78c71.05 0 128.87-57.83 128.87-128.87 0-71.05-57.82-128.87-128.87-128.87-71.04 0-128.87 57.79-128.87 128.87 0 71.07 57.83 128.87 128.87 128.87zm0-253.7c68.85 0 124.86 56.01 124.82 124.82 0 68.81-56.01 124.82-124.82 124.82-68.81 0-124.82-55.97-124.82-124.82 0-68.82 55.97-124.82 124.82-124.82zm0 241.61c64.39 0 116.79-52.4 116.76-116.76 0-64.42-52.37-116.78-116.76-116.78-64.39 0-116.78 52.4-116.78 116.78 0 64.38 52.4 116.76 116.78 116.76zm0-229.53c62.19 0 112.74 50.59 112.74 112.74 0 62.15-50.58 112.74-112.74 112.74-62.15 0-112.73-50.59-112.73-112.74 0-62.15 50.58-112.74 112.73-112.74zm0 217.41c57.73 0 104.67-46.95 104.67-104.67 0-57.72-46.95-104.66-104.67-104.66-57.72 0-104.66 46.94-104.66 104.66 0 57.72 46.94 104.67 104.66 104.67zm0-205.31c55.5 0 100.65 45.16 100.65 100.65 0 55.49-45.15 100.65-100.65 100.65-55.49 0-100.65-45.16-100.65-100.65 0-55.49 45.16-100.65 100.65-100.65zm0 193.22c51.07 0 92.58-41.52 92.58-92.58 0-51.06-41.51-92.58-92.58-92.58-51.06 0-92.57 41.52-92.57 92.58 0 51.06 41.51 92.58 92.57 92.58zm0-181.11c48.83 0 88.56 39.7 88.53 88.53 0 48.79-39.7 88.53-88.53 88.53-48.83 0-88.56-39.7-88.56-88.53 0-48.8 39.73-88.53 88.56-88.53zm0 169.02c44.4 0 80.49-36.09 80.49-80.49 0-44.4-36.12-80.49-80.49-80.49-44.36 0-80.49 36.09-80.49 80.49 0 44.4 36.13 80.49 80.49 80.49zm130.01-211.11h8.55l93.89 260.87h-8.59zm12.5 0h8.55l93.89 260.88h-8.59zm12.5 0h8.59l93.85 260.87h-8.59zm12.5 0h8.55l93.89 260.87h-8.59zm374.66 0h8.55l-93.85 260.88h-9.13l-82.38-228.94-1.96 5.46 80.39 223.47h-8.55l-76.13-211.57-1.96 5.46 74.14 206.1h-8.55l-69.88-194.19-1.96 5.46 67.89 188.72h-8.55l-63.63-176.81-2.44 6.8 0.86-0.31 61.26 170.32h-8.55l-57.38-159.44-57.38 159.44h-9.14l-93.85-260.88h8.59l64.83 180.28 57.66-160.22h8.55l-61.92 172.11 1.96 5.46 63.91-177.56h8.55l-68.16 189.49 1.95 5.46 70.16-194.94h8.55l-74.42 206.86 1.96 5.46 76.4-212.31h8.56l-80.46 223.69-0.45-0.14 2.2 6.15 82.66-229.69h8.58l57.65 160.22 64.87-180.28h8.55l-69.16 192.16 1.99 5.46 71.12-197.62h8.55l-75.37 209.53 1.95 5.46 77.37-215h8.55l-81.66 226.9 1.99 5.46 83.62-232.37h8.55l-87.7 243.74-0.45-0.14 2.23 6.15zm124.35 0h8.55l93.89 260.87h-8.58zm12.49 0h8.56l93.88 260.88h-8.58zm12.5 0h8.58l93.85 260.87h-8.59zm12.5 0h8.55l93.89 260.88h-8.59zm374.66 0h8.56l-93.85 260.87h-9.14l-82.38-228.94-1.95 5.46 80.38 223.47h-8.55l-76.13-211.56-1.96 5.46 74.14 206.1h-8.55l-69.88-194.2-1.96 5.46 67.89 188.73h-8.55l-63.63-176.82-2.44 6.8 0.86-0.31 61.26 170.32h-8.55l-57.38-159.44-57.38 159.44h-9.14l-93.84-260.87h8.58l64.83 180.28 57.66-160.23h8.55l-61.91 172.11 1.95 5.46 63.91-177.56h8.55l-68.16 189.49 1.96 5.46 70.15-194.94h8.55l-74.41 206.87 1.95 5.46 76.41-212.32h8.55l-80.46 223.69-0.45-0.14 2.2 6.15 82.66-229.69h8.58l57.66 160.23 64.86-180.28h8.55l-69.15 192.15 1.99 5.46 71.11-197.62h8.55l-75.37 209.53 1.96 5.46 77.36-215h8.55l-81.66 226.91 2 5.46 83.61-232.38h8.55l-87.7 243.75-0.45-0.14 2.23 6.14zm36.06 260.91h-8.07v-260.94h8.07zm12.43 0h-8.07v-260.94h8.07zm12.47 0h-8.07v-260.94h8.07zm12.43 0h-8.07v-260.94h8.07zm107.1-252.91h-94.64v4.4h94.64v8.07h-94.64v4.36h94.64v8.07h-94.64v4.39h94.64v8.07h-94.64v4.36h94.64v8.07h-94.64v50.14h68.85v8.07h-68.85v4.39h68.85v8.04h-68.85v4.39h68.85v8.07h-68.85v4.37h68.85v8.06h-68.85v4.4h68.85v8.07h-68.85v37.26h94.64v8.07h-94.64v4.36h94.64v8.07h-94.64v4.39h94.64v8.04h-94.64v4.39h94.64v8.07h-94.64v4.37h94.64v8.06h-102.71v-260.91h102.71c0 0 0 8.04 0 8.04zm36.7 252.88h-8.07v-260.88h8.07zm12.43 0h-8.07v-260.87h8.07zm12.43 0h-8.06v-260.88h8.06zm12.47 0h-8.07v-260.87h8.07zm114.66-49.86h-102.23v4.39h102.23v8.04h-102.23v4.4h102.23v8.07h-102.23v4.36h102.23v8.07h-102.23v4.39h102.23v8.07h-102.23v0.07h-8.07v-260.88h8.07v202.95h102.23c0 0 0 8.07 0 8.07zm36.58 49.86h-8.07v-260.87h8.07zm12.43 0h-8.07v-260.88h8.07zm12.43 0h-8.07v-260.87h8.07zm12.46 0h-8.07v-260.88h8.07zm114.67-49.86h-102.23v4.4h102.23v8.03h-102.23v4.4h102.23v8.07h-102.23v4.36h102.23v8.07h-102.23v4.39h102.23v8.07h-102.23v0.07h-8.07v-260.87h8.07v202.94h102.23c0 0 0 8.07 0 8.07zm36.54 49.86h-8.07v-260.49h8.07zm12.46 0h-8.07v-260.49h8.07zm12.43 0h-8.07v-260.49h8.07zm12.47 0h-8.07v-260.5h8.07zm167.4-260.5h8.07v260.5h-9.96l-153.08-246.49v7.14l0.07-0.03 148.65 239.37h-9.48l-139.24-224.2v7.01l134.88 217.19h-9.48l-125.41-201.92v7.01l121.05 194.91h-9.51l-111.53-179.63v7.01l107.2 172.62h-9.51l-97.7-157.34v157.34h-8.07v-170.32l-0.06-0.13 0.06-0.04v-90h8.86l104.4 168.09v-168.09h8.07v181.07l4.39 7.04v-188.11h8.04v201.13l4.39 7.04v-208.16h8.07v221.14l4.36 7.07v-228.21h8.07v241.19l4.4 7.04c0 0 0-248.24 0-248.24zm44.64 260.54h-8.07v-260.94h8.07zm12.43 0h-8.07v-260.94h8.07zm12.47 0h-8.07v-260.94h8.07zm12.43 0h-8.07v-260.94h8.07zm107.1-252.91h-94.64v4.39h94.64v8.07h-94.64v4.37h94.64v8.06h-94.64v4.4h94.64v8.07h-94.64v4.36h94.64v8.07h-94.64v50.14h68.85v8.07h-68.85v4.39h68.85v8.04h-68.85v4.39h68.85v8.07h-68.85v4.36h68.85v8.07h-68.85v4.4h68.85v8.07h-68.85v37.25h94.64v8.07h-94.64v4.37h94.64v8.07h-94.64v4.39h94.64v8.04h-94.64v4.39h94.64v8.07h-94.64v4.36h94.64v8.07h-102.7v-260.91h102.7c0 0 0 8.03 0 8.04zm109.47 91.14c44.33 0.34 80.32 36.47 80.32 80.87 0 44.57-36.26 80.87-80.87 80.87-33.28 0-62.71-19.95-75.06-50.89l6.45-2.99 0.86-0.35c11.02 28.03 37.64 46.15 67.72 46.15 40.14 0 72.8-32.65 72.8-72.79 0-40.14-32.66-72.8-72.8-72.8v-0.1c-17.31-0.31-31.32-14.46-31.32-31.87 0-17.58 14.32-31.9 31.9-31.9 13.02 0 24.21 7.72 29.16 18.92l-7.32 3.4c-3.67-8.41-12.05-14.25-21.84-14.25-13.12 0-23.83 10.71-23.83 23.86 0 13.16 10.68 23.87 23.83 23.87zm-36.09-23.87c0 19.92 16.21 36.09 36.09 36.13 37.6 0.3 68.06 30.97 68.06 68.6 0 37.85-30.8 68.65-68.64 68.65-28.3 0-53.71-17.55-63.94-43.82l7.31-3.4c8.93 23.46 31.49 39.15 56.63 39.15 33.41 0 60.57-27.16 60.57-60.57 0-33.42-27.16-60.58-60.57-60.58v-0.03c-24.08-0.31-43.58-19.99-43.58-44.13 0-24.35 19.82-44.16 44.16-44.16 17.55 0 33.17 10.51 40.21 26.03l-7.31 3.4c-5.7-12.71-18.54-21.36-32.9-21.36-19.91 0-36.09 16.17-36.09 36.09zm87.39-23.24l-7.31 3.43c-7.73-17.03-24.97-28.47-43.99-28.47-26.65 0-48.32 21.67-48.32 48.32 0 26.64 21.67 48.31 48.32 48.31 30.8 0.31 55.8 25.45 55.8 56.35 0 31.08-25.27 56.39-56.39 56.39-23.48 0-44.64-14.94-52.78-36.74l7.35-3.4c6.8 18.99 25.1 32.07 45.43 32.07 26.65 0 48.32-21.67 48.32-48.31 0-26.65-21.67-48.32-48.32-48.32v-0.03c-30.8-0.31-55.8-25.45-55.8-56.36 0-31.07 25.28-56.38 56.39-56.38 22.18 0 42.27 13.32 51.3 33.14zm11.16-5.16l-7.34 3.37c-9.76-21.46-31.32-35.54-55.15-35.54-33.42 0-60.58 27.16-60.58 60.57 0 33.41 27.16 60.58 60.58 60.58v0.03c24.07 0.31 43.57 19.98 43.57 44.13 0 24.34-19.81 44.16-44.16 44.16-18.85 0-35.54-12.19-41.65-29.67l7.35-3.4c4.77 14.7 18.64 25 34.33 25 19.92 0 36.1-16.18 36.1-36.09 0-19.92-16.18-36.09-36.1-36.09-37.6-0.31-68.06-30.98-68.06-68.61 0-37.85 30.8-68.65 68.65-68.65 26.99 0 51.37 15.94 62.46 40.21zm-63.04 109.27c-44.3-0.31-80.29-36.47-80.29-80.84 0-44.6 36.26-80.86 80.87-80.86 32 0 60.37 18.44 73.52 47.32l-7.31 3.39c-11.85-26.02-37.4-42.64-66.21-42.64-40.14 0-72.8 32.65-72.8 72.79 0 40.14 32.66 72.8 72.8 72.8v0.04c17.31 0.3 31.32 14.45 31.32 31.86 0 17.58-14.29 31.9-31.9 31.9-14.39 0-26.51-9.44-30.5-22.59l7.39-3.44c2.61 10.41 11.95 17.96 23.11 17.96 13.15 0 23.86-10.68 23.86-23.83 0-13.15-10.71-23.86-23.86-23.86zm190.26-57c44.33 0.34 80.32 36.47 80.32 80.87 0 44.57-36.26 80.87-80.87 80.87-33.27 0-62.7-19.95-75.06-50.89l6.46-2.99 0.85-0.35c11.03 28.03 37.64 46.15 67.72 46.15 40.14 0 72.8-32.65 72.8-72.79 0-40.14-32.66-72.8-72.8-72.8v-0.1c-17.3-0.31-31.32-14.46-31.32-31.87 0-17.58 14.32-31.9 31.91-31.9 13.01 0 24.2 7.72 29.15 18.92l-7.32 3.4c-3.67-8.41-12.05-14.25-21.83-14.25-13.12 0-23.84 10.71-23.84 23.86 0 13.16 10.68 23.87 23.83 23.87zm-36.09-23.87c0 19.92 16.21 36.09 36.09 36.13 37.61 0.3 68.06 30.97 68.06 68.6 0 37.85-30.8 68.65-68.64 68.65-28.29 0-53.7-17.55-63.94-43.82l7.32-3.4c8.92 23.46 31.48 39.15 56.62 39.15 33.41 0 60.57-27.16 60.57-60.57 0-33.42-27.16-60.58-60.57-60.58v-0.03c-24.07-0.31-43.57-19.99-43.57-44.13 0-24.35 19.81-44.16 44.16-44.16 17.54 0 33.17 10.51 40.21 26.03l-7.32 3.4c-5.7-12.71-18.54-21.36-32.89-21.36-19.92 0-36.09 16.17-36.1 36.09zm87.4-23.24l-7.32 3.43c-7.72-17.03-24.96-28.47-43.99-28.47-26.64 0-48.31 21.67-48.31 48.32 0 26.64 21.67 48.31 48.31 48.31 30.81 0.31 55.8 25.45 55.8 56.35 0 31.08-25.27 56.39-56.38 56.39-23.49 0-44.65-14.94-52.78-36.74l7.35-3.4c6.8 18.99 25.1 32.07 45.43 32.07 26.64 0 48.31-21.67 48.31-48.31 0-26.65-21.67-48.32-48.31-48.32v-0.03c-30.81-0.31-55.8-25.45-55.8-56.36 0-31.07 25.27-56.38 56.38-56.38 22.19 0 42.27 13.32 51.31 33.14zm11.16-5.16l-7.35 3.37c-9.75-21.46-31.32-35.54-55.15-35.54-33.41 0-60.57 27.16-60.57 60.57 0 33.41 27.16 60.58 60.57 60.58v0.03c24.07 0.31 43.57 19.98 43.57 44.13 0 24.34-19.81 44.16-44.16 44.16-18.85 0-35.54-12.19-41.65-29.67l7.35-3.4c4.77 14.7 18.65 25 34.34 25 19.91 0 36.09-16.18 36.09-36.09 0-19.92-16.17-36.09-36.09-36.09-37.6-0.31-68.06-30.98-68.06-68.61 0-37.85 30.8-68.65 68.64-68.65 26.99 0 51.37 15.94 62.47 40.21zm-63.05 109.27c-44.3-0.31-80.29-36.47-80.29-80.84 0-44.6 36.27-80.86 80.87-80.86 32.01 0 60.37 18.44 73.52 47.32l-7.31 3.39c-11.85-26.02-37.4-42.64-66.21-42.64-40.14 0-72.79 32.65-72.79 72.79 0 40.14 32.65 72.8 72.79 72.8v0.04c17.31 0.3 31.32 14.45 31.32 31.86 0 17.58-14.28 31.9-31.9 31.9-14.39 0-26.51-9.44-30.49-22.59l7.38-3.44c2.61 10.41 11.95 17.96 23.11 17.96 13.15 0 23.87-10.68 23.87-23.83 0-13.15-10.72-23.86-23.87-23.86z"/>
</svg>