
        <svg xmlns="http://www.w3.org/2000/svg" xmlns:xlink="http://www.w3.org/1999/xlink" version="1.1" width="3206.896551724138" height="1712.266441885933" viewBox="0 0 3206.896551724138 1712.266441885933">
			
			<g transform="scale(10.344827586206897) translate(10, 10)">
				<defs id="SvgjsDefs1045"><linearGradient id="SvgjsLinearGradient1052"><stop id="SvgjsStop1053" stop-color="#fbb040" offset="0"/><stop id="SvgjsStop1054" stop-color="#f9ed32" offset="1"/></linearGradient><linearGradient id="SvgjsLinearGradient1055"><stop id="SvgjsStop1056" stop-color="#fbb040" offset="0"/><stop id="SvgjsStop1057" stop-color="#f9ed32" offset="1"/></linearGradient></defs><g id="SvgjsG1046" featureKey="symbolFeature-0" transform="matrix(0.9799518247339919,0,0,0.9799518247339919,97.62721176691828,-13.255808751857298)" fill="#000"><path xmlns="http://www.w3.org/2000/svg" d="M87,50.636c0-0.016-0.009-0.03-0.01-0.046c0.001-0.109,0.009-0.217,0.009-0.327c0-20.257-17.139-36.736-38.206-36.736  c-21.067,0-38.207,16.479-38.207,36.736c0,0.084,0.006,0.167,0.006,0.251c0,0.083-0.007,0.165-0.007,0.248  c0,0.026,0.013,0.049,0.016,0.074C10.923,70.828,27.926,87,48.793,87c19.782,0,36.099-14.532,38.016-33.077  C86.935,52.84,87,51.743,87,50.636z M48.793,15.214c20.1,0,36.451,15.723,36.451,35.049c0,1.175-0.062,2.335-0.181,3.48  c-1.762,15.173-16.229,27.456-33.159,27.456c-17.448,0-25.044-8.427-28.186-17.432c5.134,8.276,14.913,14.01,25.852,14.01  c15.494,0,28.098-12.118,28.098-27.016c0-0.003-0.002-0.006-0.002-0.01c0-0.032-0.002-0.064-0.002-0.097  c0-0.006,0.004-0.012,0.004-0.018c0-0.115-0.008-0.228-0.01-0.342c-0.167-15.455-8.629-31.784-31.977-31.784  c-10.508,0-20.108,4.511-26.604,11.491C25.689,21.062,36.541,15.214,48.793,15.214z M75.91,50.762c0,0.003,0.002,0.005,0.002,0.008  C75.907,64.732,64.093,76.09,49.57,76.09c-14.833,0-27.683-11.793-27.731-25.255c0-0.065,0.161-0.134,0.161-0.199  c0-0.001,0-0.002,0-0.004c0-13.965,11.656-25.323,26.178-25.323c14.805,0,27.713,11.747,27.811,25.176  C75.99,50.577,75.91,50.679,75.91,50.762z M12.349,50.532c0.141-16.466,15.345-30.333,33.333-30.333  c16.148,0,23.691,8.021,27.202,15.96c-5.34-7.477-14.55-12.539-24.828-12.539C32.563,23.62,20,35.739,20,50.637  c0,0.002,0,0.003,0,0.005c0,0.038,0,0.078,0,0.116c0,0.001,0,0.002,0,0.004c0,0.017-0.039,0.034-0.039,0.051  c0.04,12.065,4.267,32.074,31.964,32.074c8.542,0,16.473-2.984,22.637-7.849c-6.6,6.345-15.716,10.273-25.764,10.273  C28.793,85.312,12.5,69.733,12.349,50.532z"/></g><g id="SvgjsG1047" featureKey="nameFeature-0" transform="matrix(0.9020848808758162,0,0,0.9020848808758162,-0.9018130275982695,81.74329500767739)" fill="#000"><path d="M19.775 40.0024609 l-0.86476 0 l0 -12.42 l0.86476 0 l0 12.42 z M21.085 40.0024609 l-0.86476 0 l0 -12.42 l0.86476 0 l0 12.42 z M22.395 40.0024609 l-0.86476 0 l0 -12.42 l0.86476 0 l0 12.42 z M23.701 40.0024609 l-0.86476 0 l0 -12.42 l0.86476 0 l0 12.42 z M14.98 13.312000000000001 c3.0469 0 5.9944 1.1001 8.3052 3.1093 l-0.56668 0.65132 c-2.149 -1.862 -4.894 -2.8887 -7.7352 -2.8887 c-6.528 0 -11.842 5.31 -11.842 11.842 c0 6.528 5.3136 11.842 11.842 11.842 l2.6238 0 l0 -0.40848 l-2.6238 0 c-6.3072 0 -11.437 -5.1296 -11.437 -11.437 s5.1296 -11.437 11.437 -11.437 c2.7084 0 5.336 0.9678 7.3964 2.7268 l-0.563 0.65872 c-1.9062 -1.6265 -4.3312 -2.5207 -6.8372 -2.5207 c-5.8288 0 -10.572 4.7432 -10.572 10.572 s4.7432 10.572 10.572 10.572 l2.6238 0 l0 -0.40848 l-2.6238 0 c-5.6044 0 -10.164 -4.5592 -10.164 -10.164 s4.5592 -10.164 10.164 -10.164 c2.3698 0 4.6772 0.83164 6.4948 2.3477 l-0.55568 0.6624 c-1.6596 -1.3873 -3.7718 -2.149 -5.9392 -2.149 c-5.126 0 -9.2992 4.1728 -9.2992 9.2992 s4.1692 9.2992 9.2992 9.2992 l2.6238 0 l0 -0.40848 l-2.6238 0 c-4.9052 0 -8.894 -3.9926 -8.894 -8.894 s3.989 -8.8904 8.894 -8.8904 c2.0276 0 4.0148 0.70284 5.586 1.9798 l-0.5446 0.66972 c-1.4388 -1.1665 -3.1831 -1.7847 -5.0412 -1.7847 c-4.4268 0 -8.0296 3.6026 -8.0296 8.0296 s3.6026 8.0296 8.0296 8.0296 l2.6238 0 l0 -6.4655 l0.86476 0 l0 12.416 l-3.4885 0 c-7.7092 0 -13.98 -6.2704 -13.98 -13.98 s6.2704 -13.98 13.98 -13.98 c3.3891 0 6.6568 1.2327 9.2072 3.4701 l-0.5704 0.65132 c-2.3919 -2.1012 -5.4572 -3.2567 -8.6368 -3.2567 c-7.2308 0 -13.115 5.884 -13.115 13.115 s5.884 13.115 13.115 13.115 l2.6238 0 l0 -0.40476 l-2.6238 0 c-7.0064 0 -12.706 -5.7036 -12.706 -12.71 s5.7 -12.706 12.706 -12.706 z M28.1154 39.9987891 l-0.86476 0 l0 -27.956 l0.86476 0 l0 27.956 z M29.4476 39.9987891 l-0.86476 0 l0 -27.956 l0.86476 0 l0 27.956 z M30.7798 39.9987891 l-0.86476 0 l0 -27.956 l0.86476 0 l0 27.956 z M32.1154 39.9987891 l-0.86476 0 l0 -27.956 l0.86476 0 l0 27.956 z M44.403 34.6556 l-10.955 0.000039062 l0 0.47102 l10.955 0 l0 0.86109 l-10.955 0 l0 0.47102 l10.955 0 l0 0.86476 l-10.955 0 l0 0.46734 l10.955 0 l0 0.86476 l-10.955 0 l0 0.47102 l10.955 0 l0 0.86476 l-10.955 0 l0 0.0073438 l-0.86476 0 l0 -27.956 l0.86476 0 l0 21.748 l10.955 0 l0 0.86476 z M60.329 11.370000000000001 c8.092 0 14.675 6.5796 14.675 14.675 c0 8.092 -6.5832 14.675 -14.675 14.675 s-14.675 -6.5832 -14.675 -14.675 s6.5832 -14.675 14.675 -14.675 z M60.329 39.8516 c7.6136 0 13.81 -6.1968 13.81 -13.81 s-6.1968 -13.81 -13.81 -13.81 s-13.81 6.1932 -13.81 13.81 s6.1968 13.81 13.81 13.81 z M60.329 12.665 c7.378 0 13.38 6.002 13.376 13.376 c0 7.3744 -6.002 13.376 -13.376 13.376 s-13.376 -5.998 -13.376 -13.376 c0 -7.3744 5.998 -13.376 13.376 -13.376 z M60.329 38.5563 c6.8996 0 12.515 -5.6156 12.512 -12.512 c0 -6.9036 -5.6116 -12.515 -12.512 -12.515 s-12.515 5.6156 -12.515 12.515 s5.6156 12.512 12.515 12.512 z M60.329 13.96 c6.664 0 12.081 5.4204 12.081 12.081 s-5.4204 12.081 -12.081 12.081 s-12.081 -5.4204 -12.081 -12.081 s5.4204 -12.081 12.081 -12.081 z M60.329 37.2573 c6.186 0 11.216 -5.0304 11.216 -11.216 s-5.0304 -11.216 -11.216 -11.216 s-11.216 5.0304 -11.216 11.216 s5.0304 11.216 11.216 11.216 z M60.329 15.256 c5.9468 0 10.786 4.8392 10.786 10.786 s-4.8392 10.786 -10.786 10.786 s-10.786 -4.8392 -10.786 -10.786 s4.8392 -10.786 10.786 -10.786 z M60.329 35.962 c5.472 0 9.9208 -4.4488 9.9208 -9.9208 s-4.4488 -9.9208 -9.9208 -9.9208 s-9.9208 4.4488 -9.9208 9.9208 s4.4488 9.9208 9.9208 9.9208 z M60.329 16.554 c5.2328 0 9.4904 4.254 9.4868 9.4868 c0 5.2292 -4.254 9.4868 -9.4868 9.4868 s-9.4904 -4.254 -9.4904 -9.4868 c0 -5.2292 4.2576 -9.4868 9.4904 -9.4868 z M60.329 34.6668 c4.758 0 8.6256 -3.8676 8.6256 -8.6256 s-3.8712 -8.6256 -8.6256 -8.6256 s-8.6256 3.8676 -8.6256 8.6256 s3.8712 8.6256 8.6256 8.6256 z M74.261 12.043 l0.91629 0 l10.061 27.956 l-0.91996 0 z M75.6005 12.043 l0.91629 0 l10.061 27.956 l-0.91996 0 z M76.94 12.043 l0.91996 0 l10.057 27.956 l-0.91996 0 z M78.2794 12.043 l0.91629 0 l10.061 27.956 l-0.91996 0 z M118.429 12.043 l0.91636 -0.000078124 l-10.057 27.956 l-0.97883 0 l-8.828 -24.534 l-0.20976 0.58512 l8.6144 23.948 l-0.91629 0 l-8.1584 -22.672 l-0.20976 0.58512 l7.9448 22.086 l-0.91629 0 l-7.4884 -20.81 l-0.20976 0.58508 l7.2752 20.224 l-0.91629 0 l-6.8188 -18.948 l-0.26129 0.7286 l0.091992 -0.033125 l6.5648 18.252 l-0.91629 0 l-6.1492 -17.086 l-6.1492 17.086 l-0.97883 0 l-10.057 -27.956 l0.91996 0 l6.9476 19.319 l6.1784 -17.17 l0.91629 0 l-6.6348 18.444 l0.20976 0.58512 l6.8484 -19.028 l0.91629 0 l-7.3044 20.306 l0.20976 0.58512 l7.518 -20.89 l0.91629 0 l-7.9744 22.168 l0.20976 0.58508 l8.1876 -22.752 l0.91629 0 l-8.622 23.971 l-0.047852 -0.014726 l0.23551 0.65872 l8.8576 -24.614 l0.91996 0 l6.1784 17.17 l6.9512 -19.319 l0.91629 0 l-7.4112 20.592 l0.21344 0.58512 l7.6208 -21.178 l0.91629 0 l-8.0772 22.454 l0.20976 0.58512 l8.2908 -23.04 l0.91629 0 l-8.7508 24.316 l0.21344 0.58512 l8.9604 -24.902 l0.91629 0 l-9.3984 26.12 l-0.047852 -0.014726 l0.23918 0.65872 z M131.755 12.043 l0.91629 0 l10.061 27.956 l-0.91996 0 z M133.09449999999998 12.043 l0.91629 0 l10.061 27.956 l-0.91996 0 z M134.434 12.043 l0.91996 0 l10.057 27.956 l-0.91996 0 z M135.77339999999998 12.043 l0.91629 0 l10.061 27.956 l-0.91996 0 z M175.923 12.043 l0.91636 -0.000078124 l-10.057 27.956 l-0.97883 0 l-8.828 -24.534 l-0.20976 0.58512 l8.6144 23.948 l-0.91629 0 l-8.1584 -22.672 l-0.20976 0.58512 l7.9448 22.086 l-0.91629 0 l-7.4884 -20.81 l-0.20976 0.58508 l7.2752 20.224 l-0.91629 0 l-6.8188 -18.948 l-0.26129 0.7286 l0.091992 -0.033125 l6.5648 18.252 l-0.91629 0 l-6.1492 -17.086 l-6.1492 17.086 l-0.97883 0 l-10.057 -27.956 l0.91996 0 l6.9476 19.319 l6.1784 -17.17 l0.91629 0 l-6.6348 18.444 l0.20976 0.58512 l6.8484 -19.028 l0.91629 0 l-7.3044 20.306 l0.20976 0.58512 l7.518 -20.89 l0.91629 0 l-7.9744 22.168 l0.20976 0.58508 l8.1876 -22.752 l0.91629 0 l-8.622 23.971 l-0.047852 -0.014726 l0.23551 0.65872 l8.8576 -24.614 l0.91996 0 l6.1784 17.17 l6.9512 -19.319 l0.91629 0 l-7.4112 20.592 l0.21344 0.58512 l7.6208 -21.178 l0.91629 0 l-8.0772 22.454 l0.20976 0.58512 l8.2908 -23.04 l0.91629 0 l-8.7508 24.316 l0.21344 0.58512 l8.9604 -24.902 l0.91629 0 l-9.3984 26.12 l-0.047852 -0.014726 l0.23918 0.65872 z M179.7868 40.0024609 l-0.86476 0 l0 -27.963 l0.86476 0 l0 27.963 z M181.1189 40.0024609 l-0.86476 0 l0 -27.963 l0.86476 0 l0 27.963 z M182.4548 40.0024609 l-0.86476 0 l0 -27.963 l0.86476 0 l0 27.963 z M183.7868 40.0024609 l-0.86476 0 l0 -27.963 l0.86476 0 l0 27.963 z M195.264 12.899999999999999 l-10.142 0.000039062 l0 0.47102 l10.142 0 l0 0.86476 l-10.142 0 l0 0.46734 l10.142 0 l0 0.86476 l-10.142 0 l0 0.47102 l10.142 0 l0 0.86476 l-10.142 0 l0 0.46734 l10.142 0 l0 0.86476 l-10.142 0 l0 5.3726 l7.3781 0 l0 0.86476 l-7.3781 0 l0 0.47102 l7.3781 0 l0 0.86109 l-7.3781 0 l0 0.47102 l7.3781 0 l0 0.86476 l-7.3781 0 l0 0.46734 l7.3781 0 l0 0.86476 l-7.3781 0 l0 0.47102 l7.3781 0 l0 0.86476 l-7.3781 0 l0 3.9927 l10.142 0 l0 0.86476 l-10.142 0 l0 0.46734 l10.142 0 l0 0.86476 l-10.142 0 l0 0.47102 l10.142 0 l0 0.86109 l-10.142 0 l0 0.47102 l10.142 0 l0 0.86476 l-10.142 0 l0 0.46734 l10.142 0 l0 0.86476 l-11.006 0 l0 -27.96 l11.006 0 l0 0.86109 z M199.19740000000002 39.9987891 l-0.86476 0 l0 -27.956 l0.86476 0 l0 27.956 z M200.52960000000002 39.9987891 l-0.86476 0 l0 -27.956 l0.86476 0 l0 27.956 z M201.86180000000002 39.9987891 l-0.86476 0 l0 -27.956 l0.86476 0 l0 27.956 z M203.19740000000002 39.9987891 l-0.86476 0 l0 -27.956 l0.86476 0 l0 27.956 z M215.485 34.6556 l-10.955 0.000039062 l0 0.47102 l10.955 0 l0 0.86109 l-10.955 0 l0 0.47102 l10.955 0 l0 0.86476 l-10.955 0 l0 0.46734 l10.955 0 l0 0.86476 l-10.955 0 l0 0.47102 l10.955 0 l0 0.86476 l-10.955 0 l0 0.0073438 l-0.86476 0 l0 -27.956 l0.86476 0 l0 21.748 l10.955 0 l0 0.86476 z M219.4044 39.9987891 l-0.86476 0 l0 -27.956 l0.86476 0 l0 27.956 z M220.7366 39.9987891 l-0.86476 0 l0 -27.956 l0.86476 0 l0 27.956 z M222.0688 39.9987891 l-0.86476 0 l0 -27.956 l0.86476 0 l0 27.956 z M223.4044 39.9987891 l-0.86476 0 l0 -27.956 l0.86476 0 l0 27.956 z M235.692 34.6556 l-10.955 0.000039062 l0 0.47102 l10.955 0 l0 0.86109 l-10.955 0 l0 0.47102 l10.955 0 l0 0.86476 l-10.955 0 l0 0.46734 l10.955 0 l0 0.86476 l-10.955 0 l0 0.47102 l10.955 0 l0 0.86476 l-10.955 0 l0 0.0073438 l-0.86476 0 l0 -27.956 l0.86476 0 l0 21.748 l10.955 0 l0 0.86476 z M239.6078 39.9987891 l-0.86476 0 l0 -27.915 l0.86476 0 l0 27.915 z M240.9436 39.9987891 l-0.86476 0 l0 -27.915 l0.86476 0 l0 27.915 z M242.2758 39.9987891 l-0.86476 0 l0 -27.915 l0.86476 0 l0 27.915 z M243.6114 39.9987891 l-0.86476 0 l0 -27.915 l0.86476 0 l0 27.915 z M261.551 12.082999999999998 l0.8648 -0.000039062 l0 27.915 l-1.0671 0 l-16.405 -26.414 l0 0.76543 l0.0073436 -0.0036719 l15.93 25.652 l-1.0156 0 l-14.922 -24.026 l0 0.7507 l14.454 23.275 l-1.0156 0 l-13.439 -21.638 l0 0.7507 l12.972 20.887 l-1.0193 0 l-11.952 -19.249 l0 0.7507 l11.488 18.499 l-1.0193 0 l-10.469 -16.861 l0 16.861 l-0.86476 0 l0 -18.252 l-0.0073436 -0.014726 l0.0073436 -0.0036719 l0 -9.6449 l0.94942 0 l11.187 18.013 l0 -18.013 l0.86476 0 l0 19.404 l0.471 0.75436 l0 -20.158 l0.86109 0 l0 21.553 l0.471 0.75436 l0 -22.307 l0.86476 0 l0 23.698 l0.46736 0.75804 l0 -24.456 l0.86476 0 l0 25.847 l0.471 0.75436 l0 -26.602 z M266.3348 40.0024609 l-0.86476 0 l0 -27.963 l0.86476 0 l0 27.963 z M267.6669 40.0024609 l-0.86476 0 l0 -27.963 l0.86476 0 l0 27.963 z M269.0028 40.0024609 l-0.86476 0 l0 -27.963 l0.86476 0 l0 27.963 z M270.3348 40.0024609 l-0.86476 0 l0 -27.963 l0.86476 0 l0 27.963 z M281.81199999999995 12.899999999999999 l-10.142 0.000039062 l0 0.47102 l10.142 0 l0 0.86476 l-10.142 0 l0 0.46734 l10.142 0 l0 0.86476 l-10.142 0 l0 0.47102 l10.142 0 l0 0.86476 l-10.142 0 l0 0.46734 l10.142 0 l0 0.86476 l-10.142 0 l0 5.3726 l7.3781 0 l0 0.86476 l-7.3781 0 l0 0.47102 l7.3781 0 l0 0.86109 l-7.3781 0 l0 0.47102 l7.3781 0 l0 0.86476 l-7.3781 0 l0 0.46734 l7.3781 0 l0 0.86476 l-7.3781 0 l0 0.47102 l7.3781 0 l0 0.86476 l-7.3781 0 l0 3.9927 l10.142 0 l0 0.86476 l-10.142 0 l0 0.46734 l10.142 0 l0 0.86476 l-10.142 0 l0 0.47102 l10.142 0 l0 0.86109 l-10.142 0 l0 0.47102 l10.142 0 l0 0.86476 l-10.142 0 l0 0.46734 l10.142 0 l0 0.86476 l-11.006 0 l0 -27.96 l11.006 0 l0 0.86109 z M293.54299999999995 22.667 c4.7508 0.036797 8.6072 3.908 8.6072 8.666 c0 4.7764 -3.8859 8.666 -8.666 8.666 c-3.5658 0 -6.7196 -2.138 -8.044 -5.4536 l0.6918 -0.32016 l0.091992 -0.036797 c1.1812 3.0028 4.0332 4.9456 7.2568 4.9456 c4.3016 0 7.8012 -3.4995 7.8012 -7.8012 s-3.4995 -7.8012 -7.8012 -7.8012 l0 -0.011055 c-1.8546 -0.033125 -3.356 -1.5492 -3.356 -3.4149 c0 -1.8841 1.5345 -3.4186 3.4186 -3.4186 c1.3946 0 2.5943 0.82796 3.1242 2.0276 l-0.78384 0.3643 c-0.39375 -0.90156 -1.2916 -1.5272 -2.3404 -1.5272 c-1.4057 0 -2.5538 1.1481 -2.5538 2.5575 s1.1444 2.5575 2.5538 2.5575 z M289.6758 20.109 c0 2.1343 1.7368 3.8676 3.8674 3.8712 c4.0296 0.033125 7.2936 3.3192 7.2936 7.3524 c0 4.0552 -3.3008 7.356 -7.356 7.356 c-3.0322 0 -5.7552 -1.8804 -6.852 -4.6956 l0.78384 -0.3643 c0.95676 2.5134 3.3744 4.1952 6.068 4.1952 c3.5805 0 6.4912 -2.9108 6.4912 -6.4912 s-2.9108 -6.4912 -6.4912 -6.4912 l0 -0.0036719 c-2.5796 -0.033125 -4.6696 -2.1417 -4.6696 -4.7288 c0 -2.609 2.1233 -4.7324 4.7324 -4.7324 c1.8804 0 3.5547 1.126 4.3092 2.7893 l-0.78384 0.3643 c-0.61084 -1.3616 -1.9871 -2.2889 -3.5253 -2.2889 c-2.1343 0 -3.8676 1.7332 -3.8676 3.8676 z M299.04099999999994 17.618 l-0.78384 0.36797 c-0.82796 -1.8252 -2.6753 -3.0506 -4.714 -3.0506 c-2.8556 0 -5.1776 2.322 -5.1776 5.1776 s2.322 5.1776 5.1776 5.1776 c3.3008 0.033125 5.9796 2.7268 5.9796 6.0388 c0 3.3303 -2.7084 6.0424 -6.0424 6.0424 c-2.517 0 -4.784 -1.6008 -5.656 -3.9374 l0.78752 -0.3643 c0.7286 2.035 2.69 3.437 4.8684 3.437 c2.8556 0 5.1776 -2.322 5.1776 -5.1776 s-2.322 -5.1776 -5.1776 -5.1776 l0 -0.0036719 c-3.3008 -0.033125 -5.9796 -2.7268 -5.9796 -6.0388 c0 -3.3303 2.7084 -6.0424 6.0424 -6.0424 c2.3772 0 4.53 1.4278 5.4976 3.551 z M300.23699999999997 17.066 l-0.78752 0.36062 c-1.0451 -2.2999 -3.356 -3.8087 -5.91 -3.8087 c-3.5805 0 -6.4912 2.9108 -6.4912 6.4912 s2.9108 6.4912 6.4912 6.4912 l0 0.0036719 c2.5796 0.033125 4.6696 2.1417 4.6696 4.7288 c0 2.609 -2.1233 4.7324 -4.7324 4.7324 c-2.0202 0 -3.8086 -1.3064 -4.4636 -3.1794 l0.78752 -0.3643 c0.51148 1.575 1.9982 2.6789 3.6798 2.6789 c2.1343 0 3.8676 -1.7332 3.8676 -3.8676 s-1.7332 -3.8676 -3.8676 -3.8676 c-4.0296 -0.033125 -7.2936 -3.3192 -7.2936 -7.3524 c0 -4.0552 3.3008 -7.356 7.356 -7.356 c2.8924 0 5.5052 1.7075 6.6936 4.3092 z M293.4806 28.775 c-4.7472 -0.033125 -8.6036 -3.908 -8.6036 -8.6624 c0 -4.78 3.8859 -8.666 8.666 -8.666 c3.4296 0 6.4692 1.9761 7.8788 5.0708 l-0.78384 0.3643 c-1.2696 -2.7893 -4.0076 -4.5704 -7.0948 -4.5704 c-4.3016 0 -7.8012 3.4995 -7.8012 7.8012 s3.4995 7.8012 7.8012 7.8012 l0 0.0036719 c1.8546 0.033125 3.356 1.5492 3.356 3.4149 c0 1.8841 -1.5308 3.4186 -3.4186 3.4186 c-1.5419 0 -2.8409 -1.012 -3.2677 -2.4213 l0.79116 -0.36797 c0.27969 1.115 1.2806 1.9246 2.4766 1.9246 c1.4094 0 2.5575 -1.1444 2.5575 -2.5538 s-1.1481 -2.5575 -2.5575 -2.5575 z M313.86999999999995 22.667 c4.7508 0.036797 8.6072 3.908 8.6072 8.666 c0 4.7764 -3.8859 8.666 -8.666 8.666 c-3.5658 0 -6.7196 -2.138 -8.044 -5.4536 l0.6918 -0.32016 l0.091992 -0.036797 c1.1812 3.0028 4.0332 4.9456 7.2568 4.9456 c4.3016 0 7.8012 -3.4995 7.8012 -7.8012 s-3.4995 -7.8012 -7.8012 -7.8012 l0 -0.011055 c-1.8546 -0.033125 -3.356 -1.5492 -3.356 -3.4149 c0 -1.8841 1.5345 -3.4186 3.4186 -3.4186 c1.3946 0 2.5943 0.82796 3.1242 2.0276 l-0.78384 0.3643 c-0.39375 -0.90156 -1.2916 -1.5272 -2.3404 -1.5272 c-1.4057 0 -2.5538 1.1481 -2.5538 2.5575 s1.1444 2.5575 2.5538 2.5575 z M310.0028 20.109 c0 2.1343 1.7368 3.8676 3.8674 3.8712 c4.0296 0.033125 7.2936 3.3192 7.2936 7.3524 c0 4.0552 -3.3008 7.356 -7.356 7.356 c-3.0322 0 -5.7552 -1.8804 -6.852 -4.6956 l0.78384 -0.3643 c0.95676 2.5134 3.3744 4.1952 6.068 4.1952 c3.5805 0 6.4912 -2.9108 6.4912 -6.4912 s-2.9108 -6.4912 -6.4912 -6.4912 l0 -0.0036719 c-2.5796 -0.033125 -4.6696 -2.1417 -4.6696 -4.7288 c0 -2.609 2.1233 -4.7324 4.7324 -4.7324 c1.8804 0 3.5547 1.126 4.3092 2.7893 l-0.78384 0.3643 c-0.61084 -1.3616 -1.9871 -2.2889 -3.5253 -2.2889 c-2.1343 0 -3.8676 1.7332 -3.8676 3.8676 z M319.36799999999994 17.618 l-0.78384 0.36797 c-0.82796 -1.8252 -2.6753 -3.0506 -4.714 -3.0506 c-2.8556 0 -5.1776 2.322 -5.1776 5.1776 s2.322 5.1776 5.1776 5.1776 c3.3008 0.033125 5.9796 2.7268 5.9796 6.0388 c0 3.3303 -2.7084 6.0424 -6.0424 6.0424 c-2.517 0 -4.784 -1.6008 -5.656 -3.9374 l0.78752 -0.3643 c0.7286 2.035 2.69 3.437 4.8684 3.437 c2.8556 0 5.1776 -2.322 5.1776 -5.1776 s-2.322 -5.1776 -5.1776 -5.1776 l0 -0.0036719 c-3.3008 -0.033125 -5.9796 -2.7268 -5.9796 -6.0388 c0 -3.3303 2.7084 -6.0424 6.0424 -6.0424 c2.3772 0 4.53 1.4278 5.4976 3.551 z M320.56399999999996 17.066 l-0.78752 0.36062 c-1.0451 -2.2999 -3.356 -3.8087 -5.91 -3.8087 c-3.5805 0 -6.4912 2.9108 -6.4912 6.4912 s2.9108 6.4912 6.4912 6.4912 l0 0.0036719 c2.5796 0.033125 4.6696 2.1417 4.6696 4.7288 c0 2.609 -2.1233 4.7324 -4.7324 4.7324 c-2.0202 0 -3.8086 -1.3064 -4.4636 -3.1794 l0.78752 -0.3643 c0.51148 1.575 1.9982 2.6789 3.6798 2.6789 c2.1343 0 3.8676 -1.7332 3.8676 -3.8676 s-1.7332 -3.8676 -3.8676 -3.8676 c-4.0296 -0.033125 -7.2936 -3.3192 -7.2936 -7.3524 c0 -4.0552 3.3008 -7.356 7.356 -7.356 c2.8924 0 5.5052 1.7075 6.6936 4.3092 z M313.8076 28.775 c-4.7472 -0.033125 -8.6036 -3.908 -8.6036 -8.6624 c0 -4.78 3.8859 -8.666 8.666 -8.666 c3.4296 0 6.4692 1.9761 7.8788 5.0708 l-0.78384 0.3643 c-1.2696 -2.7893 -4.0076 -4.5704 -7.0948 -4.5704 c-4.3016 0 -7.8012 3.4995 -7.8012 7.8012 s3.4995 7.8012 7.8012 7.8012 l0 0.0036719 c1.8546 0.033125 3.356 1.5492 3.356 3.4149 c0 1.8841 -1.5308 3.4186 -3.4186 3.4186 c-1.5419 0 -2.8409 -1.012 -3.2677 -2.4213 l0.79116 -0.36797 c0.27969 1.115 1.2806 1.9246 2.4766 1.9246 c1.4094 0 2.5575 -1.1444 2.5575 -2.5538 s-1.1481 -2.5575 -2.5575 -2.5575 z"/></g><g id="SvgjsG1048" featureKey="sloganFeature-0" transform="matrix(0.5181369885540791,0,0,0.5181369885540791,24.84792682153088,135.05515196891622)" fill="#000"><path d="M11.27 20 l-1.0254 -2.9102 l-5.9277 0 l-1.0254 2.9102 l-2.998 0 l5.1953 -14.111 l3.584 0 l5.1953 14.111 l-2.998 0 z M5.1758 14.6387 l4.209 0 l-2.0996 -5.9863 z M25.8154578125 20.19531 c-4.1504 0 -7.2168 -2.8223 -7.2168 -7.2559 s3.0664 -7.2461 7.2168 -7.2461 c3.1445 0 5.6641 1.6113 6.6699 4.2871 l-2.7344 0.99609 c-0.625 -1.6406 -2.1191 -2.5879 -3.9355 -2.5879 c-2.4316 0 -4.2969 1.6992 -4.2969 4.5508 s1.8652 4.5605 4.2969 4.5605 c1.8164 0 3.3105 -0.95703 3.9355 -2.5977 l2.7344 0.99609 c-1.0059 2.6758 -3.5254 4.2969 -6.6699 4.2969 z M43.291034375 20.19531 c-3.0957 0 -5.5176 -1.582 -5.5176 -5.1367 l0 -9.1699 l2.9297 0 l0 8.7695 c0 2.1484 1.1426 2.9492 2.5879 2.9492 c1.4551 0 2.6074 -0.81055 2.6074 -2.9492 l0 -8.7695 l2.9297 0 l0 9.1699 c0 3.5547 -2.4316 5.1367 -5.5371 5.1367 z M61.2353390625 5.888999999999999 c2.7637 0 4.4824 2.0508 4.4824 4.5605 c0 2.5684 -1.7188 4.4922 -4.4824 4.4922 l-2.9395 0 l0 5.0586 l-2.9297 0 l0 -14.111 l5.8691 0 z M60.7470390625 12.4902 c1.4648 0 2.1484 -0.81055 2.1484 -2.0801 c0 -1.2207 -0.68359 -2.0703 -2.1484 -2.0703 l-2.4512 0 l0 4.1504 l2.4512 0 z M76.58205 20.19531 c-3.0957 0 -5.5176 -1.582 -5.5176 -5.1367 l0 -9.1699 l2.9297 0 l0 8.7695 c0 2.1484 1.1426 2.9492 2.5879 2.9492 c1.4551 0 2.6074 -0.81055 2.6074 -2.9492 l0 -8.7695 l2.9297 0 l0 9.1699 c0 3.5547 -2.4316 5.1367 -5.5371 5.1367 z M98.2960546875 5.888999999999999 l2.9199 0 l0 14.111 l-3.3887 0 l-6.25 -10.088 l0 10.088 l-2.9199 0 l0 -14.111 l3.3496 0 l6.2891 10.029 l0 -10.029 z M114.296903125 20.19531 c-4.1504 0 -7.2168 -2.8223 -7.2168 -7.2559 s3.0664 -7.2461 7.2168 -7.2461 c3.1445 0 5.6641 1.6113 6.6699 4.2871 l-2.7344 0.99609 c-0.625 -1.6406 -2.1191 -2.5879 -3.9355 -2.5879 c-2.4316 0 -4.2969 1.6992 -4.2969 4.5508 s1.8652 4.5605 4.2969 4.5605 c1.8164 0 3.3105 -0.95703 3.9355 -2.5977 l2.7344 0.99609 c-1.0059 2.6758 -3.5254 4.2969 -6.6699 4.2969 z M134.7316796875 5.888999999999999 l0 2.5781 l-3.3496 0 l0 11.533 l-2.9004 0 l0 -11.533 l-3.3691 0 l0 -2.5781 l9.6191 0 z M145.35158125 20.19531 c-3.0957 0 -5.5176 -1.582 -5.5176 -5.1367 l0 -9.1699 l2.9297 0 l0 8.7695 c0 2.1484 1.1426 2.9492 2.5879 2.9492 c1.4551 0 2.6074 -0.81055 2.6074 -2.9492 l0 -8.7695 l2.9297 0 l0 9.1699 c0 3.5547 -2.4316 5.1367 -5.5371 5.1367 z M164.8778859375 20 l-3.6719 -6.2109 l-0.84961 0 l0 6.2109 l-2.9297 0 l0 -14.111 l5.1172 0 c3.1934 0 4.541 1.8848 4.541 4.2188 c0 1.8945 -1.0742 3.125 -2.9883 3.5352 l4.248 6.3574 l-3.4668 0 z M160.3564859375 8.32 l0 3.3691 l1.7285 0 c1.5625 0 2.1973 -0.66406 2.1973 -1.6797 c0 -1.0059 -0.63477 -1.6895 -2.1973 -1.6895 l-1.7285 0 z M181.855703125 8.467 l-5.2344 0 l0 3.2031 l4.6387 0 l0 2.5488 l-4.6387 0 l0 3.1934 l5.2344 0 l0 2.5879 l-8.1836 0 l0 -14.111 l8.1836 0 l0 2.5781 z M209.091609375 20 l-3.2227 0 l-0.92773 -1.1621 c-1.2793 0.84961 -2.8027 1.3574 -4.4727 1.3574 c-2.8418 0 -4.9707 -1.4746 -4.9707 -4.1504 c0 -2.041 1.25 -3.0371 3.6328 -4.5215 l-0.11719 -0.14648 c-0.94727 -1.2012 -1.2695 -2.0215 -1.2695 -2.8125 c0 -0.9375 0.41016 -1.6504 1.0938 -2.1387 c0.66406 -0.48828 1.6016 -0.74219 2.6758 -0.74219 c2.373 0 3.8477 1.2012 3.8477 2.9297 c0 1.2305 -0.76172 2.2266 -2.7148 3.3984 l2.5488 3.1543 c0.72266 -1.1035 1.1133 -2.3828 1.1133 -3.4863 l2.5391 0 c0 2.002 -0.76172 3.9551 -2.041 5.4883 z M200.712909375 7.811999999999999 c-0.21484 0.18555 -0.32227 0.46875 -0.32227 0.79102 c0 0.46875 0.22461 0.85938 0.74219 1.5234 l0.22461 0.2832 c1.0254 -0.61523 1.5137 -1.2402 1.5137 -1.8457 c0 -0.6543 -0.55664 -1.0547 -1.2695 -1.0547 c-0.38086 0 -0.67383 0.10742 -0.88867 0.30273 z M200.585909375 17.8906 c1.0938 0 2.0703 -0.35156 2.8809 -0.9082 l-2.9688 -3.7305 c-1.4258 0.86914 -2.4023 1.4746 -2.4023 2.7246 c0 1.2598 1.0059 1.9141 2.4902 1.9141 z M231.6115625 8.467 l-5.2344 0 l0 3.2031 l4.6387 0 l0 2.5488 l-4.6387 0 l0 3.1934 l5.2344 0 l0 2.5879 l-8.1836 0 l0 -14.111 l8.1836 0 l0 2.5781 z M247.2514453125 20 l-1.0254 -2.9102 l-5.9277 0 l-1.0254 2.9102 l-2.998 0 l5.1953 -14.111 l3.584 0 l5.1953 14.111 l-2.998 0 z M241.1572453125 14.6387 l4.209 0 l-2.0996 -5.9863 z M260.234403125 20.19531 c-3.0273 0 -5.3906 -1.4551 -5.8203 -4.1016 l3.0273 -0.69336 c0.19531 1.582 1.3574 2.4023 2.9102 2.4023 c1.1914 0 2.1387 -0.52734 2.1289 -1.7188 c-0.0097656 -1.3281 -1.5723 -1.748 -3.291 -2.2754 c-2.0703 -0.64453 -4.2871 -1.4063 -4.2871 -4.0039 c0 -2.627 2.1484 -4.1113 4.9805 -4.1113 c2.4805 0 4.9805 1.0059 5.5469 3.7109 l-2.832 0.70313 c-0.26367 -1.4063 -1.2109 -2.0215 -2.5391 -2.0215 c-1.1816 0 -2.1875 0.48828 -2.1875 1.6504 c0 1.084 1.3867 1.4453 2.9883 1.9238 c2.1289 0.64453 4.6484 1.4648 4.6484 4.2773 c0 2.998 -2.5098 4.2578 -5.2734 4.2578 z M279.5754296875 5.888999999999999 l0 2.5781 l-3.3496 0 l0 11.533 l-2.9004 0 l0 -11.533 l-3.3691 0 l0 -2.5781 l9.6191 0 z M293.15453125 8.467 l-5.2344 0 l0 3.2031 l4.6387 0 l0 2.5488 l-4.6387 0 l0 3.1934 l5.2344 0 l0 2.5879 l-8.1836 0 l0 -14.111 l8.1836 0 l0 2.5781 z M306.8017140625 20 l-3.6719 -6.2109 l-0.84961 0 l0 6.2109 l-2.9297 0 l0 -14.111 l5.1172 0 c3.1934 0 4.541 1.8848 4.541 4.2188 c0 1.8945 -1.0742 3.125 -2.9883 3.5352 l4.248 6.3574 l-3.4668 0 z M302.2803140625 8.32 l0 3.3691 l1.7285 0 c1.5625 0 2.1973 -0.66406 2.1973 -1.6797 c0 -1.0059 -0.63477 -1.6895 -2.1973 -1.6895 l-1.7285 0 z M325.23453125 5.888999999999999 l2.9199 0 l0 14.111 l-3.3887 0 l-6.25 -10.088 l0 10.088 l-2.9199 0 l0 -14.111 l3.3496 0 l6.2891 10.029 l0 -10.029 z M359.531203125 20 l-2.9199 0 l-0.92773 -10.635 l-3.5742 10.635 l-1.8945 0 l-3.5742 -10.635 l-0.9375 10.635 l-2.9297 0 l1.1816 -14.111 l4.1797 0 l3.0078 8.8574 l3.0469 -8.8574 l4.1797 0 z M373.9601953125 8.467 l-5.2344 0 l0 3.2031 l4.6387 0 l0 2.5488 l-4.6387 0 l0 3.1934 l5.2344 0 l0 2.5879 l-8.1836 0 l0 -14.111 l8.1836 0 l0 2.5781 z M380.156278125 20 l0 -14.111 l5.1074 0 c4.502 0 6.7285 2.832 6.7285 7.0508 c0 4.2285 -2.2266 7.0605 -6.7285 7.0605 l-5.1074 0 z M383.085978125 17.4121 l2.0313 0 c2.5977 0 3.7891 -1.6211 3.7891 -4.4727 s-1.1914 -4.4727 -3.7891 -4.4727 l-2.0313 0 l0 8.9453 z M397.9150671875 20 l0 -14.111 l2.9297 0 l0 14.111 l-2.9297 0 z M413.91604375 20.19531 c-4.1504 0 -7.2168 -2.8223 -7.2168 -7.2559 s3.0664 -7.2461 7.2168 -7.2461 c3.1445 0 5.6641 1.6113 6.6699 4.2871 l-2.7344 0.99609 c-0.625 -1.6406 -2.1191 -2.5879 -3.9355 -2.5879 c-2.4316 0 -4.2969 1.6992 -4.2969 4.5508 s1.8652 4.5605 4.2969 4.5605 c1.8164 0 3.3105 -0.95703 3.9355 -2.5977 l2.7344 0.99609 c-1.0059 2.6758 -3.5254 4.2969 -6.6699 4.2969 z M426.1670203125 20 l0 -14.111 l2.9297 0 l0 14.111 l-2.9297 0 z M445.556796875 5.888999999999999 l2.9199 0 l0 14.111 l-3.3887 0 l-6.25 -10.088 l0 10.088 l-2.9199 0 l0 -14.111 l3.3496 0 l6.2891 10.029 l0 -10.029 z M463.4914453125 8.467 l-5.2344 0 l0 3.2031 l4.6387 0 l0 2.5488 l-4.6387 0 l0 3.1934 l5.2344 0 l0 2.5879 l-8.1836 0 l0 -14.111 l8.1836 0 l0 2.5781 z"/></g>
			</g>
		</svg>
	